<svg width="26" height="26" viewBox="0 0 26 26" fill="none" xmlns="http://www.w3.org/2000/svg">
<path d="M12.9121 0.626465C6.10683 0.626465 0.570312 6.16298 0.570312 12.9682V18.0814C0.570312 19.3452 1.67737 20.3733 3.03867 20.3733H4.27284C4.60017 20.3733 4.91409 20.2433 5.14554 20.0118C5.37699 19.7804 5.50702 19.4664 5.50702 19.1391V12.7918C5.50702 12.4644 5.37699 12.1505 5.14554 11.9191C4.91409 11.6876 4.60017 11.5576 4.27284 11.5576H3.15221C3.83841 6.78131 7.94823 3.09482 12.9121 3.09482C17.8759 3.09482 21.9858 6.78131 22.672 11.5576H21.5513C21.224 11.5576 20.9101 11.6876 20.6786 11.9191C20.4472 12.1505 20.3172 12.4644 20.3172 12.7918V20.3733C20.3172 21.7346 19.2101 22.8417 17.8488 22.8417H15.3804V21.6075H10.4437V25.31H17.8488C20.5714 25.31 22.7855 23.0959 22.7855 20.3733C24.1468 20.3733 25.2539 19.3452 25.2539 18.0814V12.9682C25.2539 6.16298 19.7173 0.626465 12.9121 0.626465Z" fill="white"/>
</svg>
