<svg width="26" height="28" viewBox="0 0 26 28" fill="none" xmlns="http://www.w3.org/2000/svg">
<path d="M15.82 24.8824L13 27.7024L10.18 24.8824C4.6375 23.6024 0.5 18.6324 0.5 12.7024C0.5 5.80239 6.1 0.202393 13 0.202393C19.9 0.202393 25.5 5.80239 25.5 12.7024C25.5 18.6324 21.3625 23.6024 15.82 24.8824ZM5.52875 16.9724C7.36375 19.7099 10.1187 21.4524 13.2 21.4524C16.28 21.4524 19.0362 19.7111 20.87 16.9724C18.7897 15.0281 16.0474 13.9484 13.2 13.9524C10.3521 13.9481 7.60939 15.0278 5.52875 16.9724ZM13 11.4524C13.9946 11.4524 14.9484 11.0573 15.6517 10.354C16.3549 9.65078 16.75 8.69695 16.75 7.70239C16.75 6.70783 16.3549 5.754 15.6517 5.05074C14.9484 4.34748 13.9946 3.95239 13 3.95239C12.0054 3.95239 11.0516 4.34748 10.3483 5.05074C9.64509 5.754 9.25 6.70783 9.25 7.70239C9.25 8.69695 9.64509 9.65078 10.3483 10.354C11.0516 11.0573 12.0054 11.4524 13 11.4524Z" fill="white"/>
</svg>
